<svg xmlns="http://www.w3.org/2000/svg" width="395" height="379"><path d="M392.242 189.67A195.12 174.645 0 1 1 2 189.67a195.12 174.645 0 1 1 390.242 0z" fill="#fff" fill-rule="evenodd"/><a transform="translate(-443.602 4.162)"><path d="M645.192 357.63c.31-1.763 1.19-8.08 1.953-14.04.764-5.958 1.538-10.957 1.722-11.11 1.317-1.092 25.31-8.38 26.062-7.914 1.625 1.004 15.765 20.428 17.86 24.532 1.092 2.142 1.736 4.3 1.43 4.793-1.025 1.66-13.485 3.464-44.807 6.486l-4.787.462.566-3.207zm-44.336.272c-8.272-1.144-17.772-4.346-23.264-7.842-8.136-5.178-8.464-4.505 8.396-17.228l15.212-11.48 6.265 4.154c7.708 5.11 15.394 7.65 25.32 8.37l7.587.548-2.337 10.417c-1.285 5.73-2.483 10.565-2.662 10.744-1.918 1.918-25.807 3.522-34.517 2.318zM699.7 339.94c-8.138-5.17-12.75-8.738-13.218-10.228-.92-2.93-3.99-36.915-3.388-37.515.248-.25 4.99-1.777 10.538-3.397l10.087-2.945 25.016 20.177c28.685 23.135 27.32 20.41 14.29 28.534-7.955 4.957-26.304 13.372-29.08 13.334-.96-.012-7.37-3.595-14.246-7.96zm-159.5-7.405c-15.845-5.79-26.65-11.973-35.757-20.463-4.447-4.146-9.427-10.846-8.607-11.58 1.062-.947 92.53-60.886 93.46-61.243 1.28-.492 1.772 5.174 3.562 40.958l1.24 24.785-10.95 11.08c-9.878 9.997-11.86 11.51-20.268 15.466-5.127 2.41-10.302 4.36-11.5 4.334-1.2-.028-6.23-1.53-11.18-3.34zm79.123-11.412c-.272-.44-1.848-5.01-3.503-10.154l-3.007-9.353 28.165.708c15.49.39 28.327.87 28.525 1.068.198.2.04 4.45-.35 9.446l-.71 9.084H644.13c-13.37 0-24.535-.36-24.807-.8zm135.85-9.543c-3.836-1.84-10.348-5.5-14.473-8.137-10.233-6.54-30.993-21.48-31.03-22.33-.015-.38 1.853-9.095 4.154-19.37l4.182-18.68 12.597 6.317c10.632 5.33 61.973 37.238 65.838 40.917.974.925-.87 2.828-8.5 8.776-11.717 9.137-21.956 15.85-24.173 15.85-.893 0-4.76-1.504-8.595-3.343zM635.7 292.38c-12.375-1.84-22.837-3.373-23.25-3.402-.412-.03-.75-5.42-.75-11.977v-11.92l3.25-1.02c1.788-.562 13.94-4.422 27.004-8.578 13.064-4.157 23.915-7.558 24.113-7.558.198 0 .882 2.587 1.52 5.75.942 4.663.826 9.15-.613 23.75l-1.774 18-3.5.153c-1.925.085-13.625-1.353-26-3.196zm-162.86-17.206c-5.427-5.395-10.288-11.154-10.884-12.894l-1.078-3.144 10.66-5.51 10.662-5.513 12.458 8.947c6.852 4.92 12.61 9.1 12.796 9.284.515.515-22.608 18.58-23.782 18.58-.565 0-5.44-4.388-10.833-9.75zm210.025-15.5c-2.874-25.324-2.93-24.104 1.085-23.414 1.788.307 7.75 1.1 13.25 1.764 5.5.663 10.33 1.49 10.736 1.84.404.346-.83 8.94-2.746 19.095-1.915 10.155-3.484 18.8-3.486 19.214-.002.412-3.75.75-8.33.75h-8.324l-2.185-19.25zm84.082-3.644c-14.44-9.228-26.464-16.99-26.723-17.25-.258-.257 6.5-3.773 15.016-7.81l15.487-7.344 21.236 8.294c11.68 4.56 22.966 8.97 25.08 9.794l3.84 1.5-.684 4.566c-1.85 12.33-8.047 21.493-16.184 23.93-8.377 2.51-9.057 2.223-37.07-15.68zm-262.926-3.9c-9.448-5.89-16.85-11.045-16.447-11.458 1.898-1.952 34.795-18.748 36.72-18.748 2.928 0 39.38 6.846 41.862 7.862 1.672.684.866 1.535-5.554 5.867-4.13 2.787-14.39 10.063-22.805 16.17-8.413 6.105-15.588 11.08-15.945 11.056-.358-.026-8.38-4.863-17.83-10.75zm107.032-2.407c.328-2.914 1.073-11.6 1.655-19.3.583-7.7 1.278-15.393 1.543-17.096l.483-3.096 10.734 1.84 10.733 1.837 14.5-2.516c7.975-1.383 15.75-2.768 17.275-3.076l2.775-.56-.275 16.303-.275 16.303-27 6.59c-14.85 3.624-28.292 6.924-29.87 7.33l-2.873.743.595-5.3zm-156.468-9.33c-4.112-9.295-7.32-34.38-6.706-52.453l.322-9.484 20.385-4.798c11.21-2.64 20.51-4.67 20.664-4.516.543.548 8.743 48.822 8.35 49.16-1.494 1.285-39.98 26.622-40.437 26.622-.317 0-1.477-2.04-2.58-4.53zM696.7 229.548c-17.017-4.072-17.493-4.255-17.263-6.655.13-1.358 1.143-9.99 2.25-19.18 1.107-9.193 2.013-17.18 2.013-17.75 0-1.458 38.57-1.35 50.7.14l9.583 1.177 10.227 15.572c5.625 8.564 9.95 15.864 9.61 16.22-.697.73-47.6 14.905-48.83 14.757-.435-.053-8.665-1.98-18.29-4.283zm100.567-7.993l-27.932-8.215-8.318-12.452c-4.574-6.848-8.317-12.846-8.317-13.328 0-1.563 61.516.004 70 1.782 12.832 2.69 14.51 5.47 11.63 19.278-2.782 13.347-5.567 21.31-7.422 21.226-.94-.042-14.278-3.774-29.64-8.292zm-292.968-7.38c-1.78-8.722-5.612-33.57-5.237-33.946.5-.5 35.984-4.246 36.413-3.844.288.27-3.332 31.59-4.31 37.29l-.556 3.25H504.86l-.56-2.75zm33.716.516c.297-1.247 1.973-9.804 3.723-19.016l3.18-16.75h53.78l-.072 2.75c-.04 1.512-1.052 9.95-2.25 18.75l-2.178 16-28.362.266-28.363.265.54-2.265zm89.376-10.214c-5.944-1.834-11.008-3.535-11.253-3.78-.246-.245 1.468-6.03 3.807-12.858l4.253-12.414 9-.618c4.95-.34 15.188-.94 22.75-1.33l13.75-.713v25.711l-14.286 4.725c-7.858 2.598-14.945 4.698-15.75 4.668-.805-.03-6.328-1.558-12.272-3.392zM809.7 175.9c-11.275-.963-20.622-1.802-20.77-1.864-.15-.062-.15-8.764 0-19.34l.27-19.226 8.5-2.985c6.914-2.43 10.154-2.993 17.362-3.024l8.862-.036 3.232 3.735c1.777 2.054 4.005 6.104 4.95 9 1.916 5.86 4.544 23.683 4.575 31.014.024 5.616 3.15 5.3-26.98 2.726zm-38.3-2.61c-5.39-.624-10.034-1.367-10.318-1.65-.527-.528 9.436-32.65 10.52-33.915.33-.384 2.463-.997 4.743-1.36l4.144-.663.68 11.36c.373 6.25.533 14.962.354 19.362l-.324 8-9.8-1.134zm-62.7-1.905c-4.675-.72-13.5-2.057-19.61-2.972l-11.107-1.664 3.998-16.163c2.2-8.89 4.342-16.546 4.76-17.015.99-1.104 40.96 3.438 40.96 4.655 0 3.62-8.383 34.676-9.335 34.582-.64-.064-4.99-.705-9.665-1.425zm17-.905c0-.823 1.573-8.148 3.495-16.277 1.923-8.128 3.73-15.792 4.02-17.03.516-2.217.75-2.25 16.584-2.25h16.06l-.61 2.75c-.337 1.513-2.744 9.726-5.35 18.25l-4.74 15.5-14.73.278c-12.538.236-14.73.054-14.73-1.22zm-131-4.218c-7.425-.775-14.003-1.58-14.618-1.792-.774-.264-.19-5.04 1.894-15.464l3.012-15.082h36.237l4.224 10.75 4.223 10.75-6.6 6.25c-7.597 7.193-5.96 6.928-28.373 4.588zm37.22-12.565l.28-13.227 18.5-8.194c10.175-4.508 18.962-8.23 19.527-8.274.565-.043 2.93 3.756 5.253 8.442l4.226 8.52-3.086 12.98-3.085 12.98h-41.893l.28-13.227zm-123.303 9.813c-.726-.72.616-32.453 1.406-33.242.415-.415 5.012-.94 10.216-1.17l9.46-.413v8.642c0 8.09.256 9.15 4 16.597 2.2 4.375 4 8.415 4 8.978 0 .975-28.12 1.564-29.083.608zm31.555-5.246c-1.377-3.113-3.263-7.8-4.192-10.414l-1.688-4.754 4.738-7.125c4.728-7.11 4.746-7.123 8.454-6.457 15.256 2.74 22.342 4.203 22.86 4.72.33.332.275 7.148-.125 15.147l-.728 14.544H542.674l-2.502-5.66zm-75.858 1.933l-10.885-.344.545-11.714c.498-10.687 2.65-21.434 4.525-22.592 1.04-.644 43.538 1.538 44.404 2.28.386.33-3.016 7.8-7.562 16.6l-8.264 15.996-5.94.058c-3.265.032-10.836-.096-16.824-.285zm160.014-43.924c-3.9-16.115-4.52-19.868-3.44-20.86 1.087-1.004 46.552-28.487 47.128-28.49.41-.002-.355 35.948-.888 41.696l-.575 6.195-18.282 10.554c-10.053 5.804-18.484 10.554-18.733 10.554-.25 0-2.593-8.843-5.21-19.65zm147.053 1.51c-5.36-11.654-7.058-15.844-6.564-16.205.21-.154 8.206-5.41 17.767-11.68l17.383-11.4 3.396 3.963c7.27 8.484 19.287 30.572 19.326 35.52.01 1.265-4.175 2.186-22.238 4.897-12.237 1.837-22.816 3.548-23.507 3.803-.796.293-2.837-2.973-5.562-8.896zm-81.29 4.4l-7.108-.34-.634-6.71c-.348-3.69-.637-9.297-.64-12.46l-.008-5.75 12.25-.025 12.25-.026 8.464-5.447c8.29-5.335 8.506-5.41 10.5-3.618 1.12 1.007 9.236 8.268 18.036 16.135 8.8 7.868 16.122 14.597 16.27 14.953.15.357-9.75 1.42-22 2.363-20.812 1.6-29.733 1.776-47.38.926zm-119.17-7.248c-13.353-1.505-24.418-2.91-24.588-3.124-.65-.81-3.653-28.2-3.147-28.705.293-.292 13.804 2.99 30.024 7.296l29.49 7.83V117.923l-3.75-.127c-2.062-.07-14.675-1.358-28.03-2.862zm-67.717-2.723c-18.698-1.347-34.187-2.64-34.42-2.872-.636-.636 5.697-16.94 9.677-24.916 4.118-8.25 10.706-18.424 15.5-23.93l3.42-3.93 16.08 9.9 16.08 9.898 4.174 15.968c4.748 18.17 5.62 22.65 4.367 22.462-.483-.072-16.18-1.233-34.877-2.58zm244.455-24.807c-6.302-4.715-11.596-9.188-11.764-9.94-.17-.752 1.322-4.6 3.312-8.553 6.33-12.57 6.56-11.342-2.814-15.053-4.506-1.784-8.513-3.517-8.906-3.854-.393-.336 1.185-3.625 3.506-7.308l4.22-6.698 10.494 5.546c25.818 13.647 48.13 28.733 46.468 31.42-.604.978-30.26 21.94-31.966 22.593-.6.23-6.248-3.44-12.55-8.155zm-70.602-6.263c.334-3.695.903-10.656 1.263-15.468.4-5.36 1.086-8.752 1.768-8.755 2.338-.01 50.267 4.1 53.264 4.567l3.152.49-10.652 10.386c-15.885 15.486-12.994 14.164-32.528 14.88l-16.876.618.608-6.718zm-106.568-3.866c-5.108-4.206-9.682-7.998-10.164-8.426-.763-.678 9.147-20.978 11.368-23.285.78-.81 32.975 4.102 34.973 5.337.563.348.343 6.274-.56 15.048-2.194 21.354-.39 18.974-14.386 18.974h-11.944l-9.288-7.648zm48.77 4.387c-1.065-5.04-1.12-34.74-.065-34.74 1.265 0 39.114-3.727 45.257-4.456l4.25-.505v17.48l-24.484 12.23c-23.234 11.606-24.507 12.116-24.957 9.99zM526.89 60.017c-8.872-4.35-16.707-8.146-17.41-8.44-3.418-1.42 21.114-19.344 33.562-24.52 12.648-5.26 11.544-5.626 16.39 5.446 2.325 5.318 3.9 10.19 3.5 10.828-2.468 3.92-18.603 24.594-19.194 24.594-.394 0-7.976-3.558-16.848-7.907zm175.982-8.185l-15.328-1.873-7.172-7.673c-3.945-4.22-8.093-9.29-9.218-11.268a1345.747 1345.747 0 0 1-6.383-11.46l-4.335-7.863 6.382.735c12.724 1.466 29.142 6.085 52.266 14.705l2.882 1.075-.674 9.106c-.825 11.154-1.646 16.64-2.468 16.496-.342-.06-7.52-.952-15.95-1.982zM570.622 27.95c-1.268-6.587-2.107-12.17-1.864-12.412.834-.822 15.534-3.547 25.444-4.716 10.988-1.296 32.767-.676 38.803 1.104 2.092.617 9.182 4.965 15.754 9.662 11.802 8.436 14.018 10.336 12.053 10.336-.553 0-19.73 1.8-42.613 4-22.884 2.2-42.432 4-43.44 4-1.543 0-2.19-1.875-4.137-11.975z" fill="#88cbce"/><path d="M645.226 358.447c.247-1.113 1.127-7.383 1.955-13.934.83-6.55 1.623-12 1.764-12.11 1.38-1.075 25.27-8.28 25.985-7.837 2.9 1.792 19.77 26.404 19.77 28.843 0 1.403-6.346 2.618-23.264 4.453-27.57 2.99-26.74 2.97-26.21.584zm-44.37-.545c-8.272-1.144-17.772-4.346-23.264-7.842-8.136-5.178-8.464-4.505 8.396-17.228l15.212-11.48 6.265 4.154c7.708 5.11 15.394 7.65 25.32 8.37l7.587.548-2.337 10.417c-1.285 5.73-2.483 10.565-2.662 10.744-1.918 1.918-25.807 3.522-34.517 2.318zM699.7 339.94c-8.138-5.17-12.75-8.738-13.218-10.228-.92-2.93-3.99-36.915-3.388-37.515.248-.25 4.99-1.777 10.538-3.397l10.087-2.945 25.016 20.177c28.685 23.135 27.32 20.41 14.29 28.534-7.955 4.957-26.304 13.372-29.08 13.334-.96-.012-7.37-3.595-14.246-7.96zm-159.5-7.405c-15.845-5.79-26.65-11.973-35.757-20.463-4.438-4.138-9.433-10.852-8.607-11.57 1.162-1.01 92.528-60.896 93.447-61.248 1.284-.493 1.75 4.786 3.562 40.465l1.234 24.294-11.94 12.004c-10.523 10.58-12.935 12.472-20.328 15.955-4.614 2.173-9.34 3.928-10.5 3.9-1.162-.027-6.162-1.53-11.112-3.338zm79.165-12.36c-.652-1.08-5.663-17.602-5.392-17.778.125-.08 12.602.057 27.727.307l27.5.454-.277 6.633c-.153 3.65-.5 7.646-.77 8.884l-.49 2.25H643.74c-13.157 0-24.126-.338-24.375-.75zm140.013-6.702c-7.53-2.685-34.213-19.622-47.046-29.86l-2.868-2.29 4.12-18.37c2.267-10.102 4.365-18.61 4.662-18.908 1.186-1.186 26.023 12.322 43.954 23.905l27.335 17.656 8.335 5.382-8.835 7.113c-9.83 7.914-22.988 16.847-24.713 16.78-.617-.024-2.842-.657-4.944-1.407zM637.45 292.178l-24.75-3.532v-23.384l26.042-8.294c14.323-4.562 26.36-7.982 26.75-7.6 2.4 2.353 2.687 9.49 1.047 25.95-.94 9.408-1.736 17.893-1.773 18.856-.037.962-.63 1.702-1.317 1.643-.687-.06-12.387-1.696-26-3.64zm-164.61-17.004c-5.427-5.395-10.288-11.154-10.884-12.894l-1.078-3.144 10.66-5.51 10.662-5.513 12.458 8.947c6.852 4.92 12.61 9.1 12.796 9.284.515.515-22.608 18.58-23.782 18.58-.565 0-5.44-4.388-10.833-9.75zm210.025-15.5c-2.874-25.324-2.93-24.104 1.085-23.414 1.788.307 7.75 1.1 13.25 1.764 5.5.663 10.33 1.49 10.736 1.84.404.346-.83 8.94-2.746 19.095-1.915 10.155-3.484 18.8-3.486 19.214-.002.412-3.75.75-8.33.75h-8.324l-2.185-19.25zm84.082-3.644c-14.44-9.228-26.464-16.99-26.723-17.25-.258-.257 6.5-3.773 15.016-7.81l15.487-7.344 21.236 8.294c11.68 4.56 22.966 8.97 25.08 9.794l3.84 1.5-.684 4.566c-1.85 12.33-8.047 21.493-16.184 23.93-8.377 2.51-9.057 2.223-37.07-15.68zm-263.077-4.096l-17.33-10.84 9.33-5.055c5.13-2.78 13.432-7.19 18.446-9.802l9.116-4.747 20.884 3.884c11.486 2.135 21.475 4.18 22.197 4.54.886.446-.09 1.587-3 3.505-2.372 1.564-12.277 8.623-22.012 15.686-9.733 7.063-18.283 13.027-19 13.255-.714.228-9.1-4.464-18.63-10.426zm107.83-.808c0-3.737 3.086-39.603 3.44-39.967.14-.146 5.048.506 10.906 1.448l10.65 1.713 17.002-2.994 17.002-2.995v31.416l-26.802 6.52a13495 13495 0 0 0-29.5 7.197c-2.484.624-2.698.438-2.698-2.337zm-157.116-10.732c-4.112-9.296-7.32-34.382-6.706-52.454l.322-9.484 20.385-4.798c11.21-2.64 20.51-4.67 20.664-4.516.543.548 8.743 48.822 8.35 49.16-1.494 1.285-39.98 26.622-40.437 26.622-.317 0-1.477-2.04-2.58-4.53zm242.366-10.808c-15.297-3.644-17.25-4.338-17.258-6.135-.005-1.114.964-10.24 2.153-20.276l2.162-18.25 21.097.086c11.603.047 25.098.61 29.988 1.25l8.892 1.164 10.304 15.724c5.667 8.65 9.99 15.91 9.608 16.136-1.23.727-48.088 14.644-48.907 14.526-.435-.063-8.552-1.963-18.04-4.224zm100.273-8.115l-27.977-8.264-8.273-12.384c-4.55-6.812-8.273-12.78-8.273-13.262 0-1.55 61.512.002 69.89 1.764 7.76 1.63 11.8 3.626 12.84 6.34 1.82 4.74-5.674 34.343-8.647 34.166-.87-.052-14.173-3.814-29.56-8.36zm-292.534-5.296c-.008-.413-1.343-8.602-2.97-18.2-1.625-9.596-2.812-17.59-2.637-17.766.384-.385 36-4.09 36.39-3.786.278.218-3.333 31.364-4.32 37.252l-.543 3.25h-12.955c-7.125 0-12.96-.338-12.966-.75zm33.326-1.484c.297-1.247 1.973-9.804 3.723-19.016l3.18-16.75h53.78l-.072 2.75c-.04 1.512-1.052 9.95-2.25 18.75l-2.178 16-28.362.266-28.363.265.54-2.265zM809.7 175.9c-11.275-.963-20.622-1.802-20.77-1.864-.15-.062-.15-8.764 0-19.34l.27-19.226 8.5-2.926c11.44-3.94 22.14-4.6 26.817-1.656 6.2 3.902 10.258 16.783 11.748 37.286l.71 9.75-3.388-.136c-1.863-.075-12.612-.925-23.887-1.888zm-40.645-3.205l-8.145-.95 2.23-7.16c1.224-3.94 3.735-11.734 5.578-17.324l3.35-10.16 3.93-.376c2.177-.208 4.063.088 4.23.663.168.57.57 9.024.89 18.787l.588 17.75-2.253-.14c-1.24-.076-5.918-.567-10.398-1.09zm-43.064-3.087c.29-.753 2.242-8.866 4.34-18.027l3.81-16.656h15.78c8.68 0 15.767.112 15.75.25-.015.137-2.41 8.125-5.324 17.75l-5.296 17.5-14.792.277c-12.197.23-14.7.038-14.267-1.092zm-129.052-3.654c-8.944-.946-16.483-1.942-16.755-2.214-.403-.403 2.925-18.655 5.03-27.59.536-2.27.555-2.272 18.125-2l17.588.274 3.88 10c2.136 5.5 3.885 10.45 3.888 11 .008 1.48-12.637 12.52-14.174 12.375-.726-.07-8.638-.9-17.582-1.846zM631.7 154.03c0-9.37.342-13.034 1.25-13.412.688-.287 9.47-4.134 19.518-8.55l18.267-8.03 3.983 7.92c2.19 4.357 3.986 8.72 3.99 9.694.006.974-1.232 7.056-2.75 13.515L673.2 166.91l-20.75.007-20.75.007V154.03zm-122.45-7.356c.39-8.938.76-16.304.828-16.37.067-.064 4.51-.43 9.872-.81l9.75-.69v9.082c0 8.608.21 9.5 4.01 17.06l4.012 7.978H508.544l.706-16.25zm-41.947 13.523l-13.897-.332.594-11.22c.575-10.858 2.517-21.033 4.322-22.654.852-.763 44.007 1.23 44.85 2.07.23.232-3.34 7.608-7.932 16.392-7.767 14.854-8.55 15.975-11.195 16.024-1.565.03-9.1-.097-16.742-.28zm304.078-42.413c-5.36-11.655-7.058-15.845-6.564-16.206.21-.154 8.206-5.41 17.767-11.68l17.383-11.4 3.396 3.963c7.27 8.484 19.287 30.572 19.326 35.52.01 1.265-4.175 2.186-22.238 4.897-12.237 1.837-22.816 3.548-23.507 3.803-.796.293-2.837-2.973-5.562-8.896zm-81.29 4.4l-7.108-.342-.634-6.71c-.348-3.69-.637-9.296-.64-12.458l-.008-5.75 12.25-.026 12.25-.026 8.474-5.453 8.473-5.455 3.027 2.8c1.664 1.542 9.977 9.07 18.474 16.73l15.447 13.93-19.947 1.674c-18.71 1.57-33.362 1.888-50.057 1.084zm-119.197-7.275c-13.37-1.523-24.434-2.93-24.59-3.127-.616-.786-3.616-28.18-3.138-28.658.282-.28 13.793 3.013 30.024 7.32l29.51 7.834v19.644l-3.75-.124c-2.062-.07-14.688-1.37-28.057-2.89zm-67.69-2.698c-18.698-1.347-34.187-2.64-34.42-2.872-.636-.636 5.697-16.94 9.677-24.916 4.118-8.25 10.706-18.424 15.5-23.93l3.42-3.93 16.08 9.9 16.08 9.898 4.174 15.968c4.748 18.17 5.62 22.65 4.367 22.462-.483-.072-16.18-1.233-34.877-2.58zM747.49 87.15c-6.442-4.8-11.73-9.124-11.75-9.61-.023-.487 1.985-5.16 4.46-10.384 2.475-5.225 4.5-9.614 4.5-9.754 0-.14-3.712-1.723-8.25-3.52-4.537-1.795-8.562-3.533-8.943-3.86-.38-.33 1.215-3.622 3.546-7.317l4.24-6.72 14.953 8.084c17.858 9.652 34.7 20.447 39.292 25.186l3.33 3.437-3.333 2.463c-7.755 5.727-28.294 20.004-29.272 20.347-.585.205-6.333-3.554-12.774-8.353zm-70.434-6.008c.334-3.695.903-10.656 1.263-15.468.4-5.36 1.086-8.752 1.768-8.755 2.338-.01 50.267 4.1 53.264 4.567l3.152.49-10.652 10.386c-15.885 15.486-12.994 14.164-32.528 14.88l-16.876.618.608-6.718zm-106.568-3.866c-5.108-4.206-9.682-7.998-10.164-8.426-.763-.678 9.147-20.978 11.368-23.285.78-.81 32.975 4.102 34.973 5.337.563.348.343 6.274-.56 15.048-2.194 21.354-.39 18.974-14.386 18.974h-11.944l-9.288-7.648zm48.866-6.51c-.36-6.686-.654-14.685-.654-17.776v-5.62l18.75-1.768c10.313-.972 21.338-2.036 24.5-2.363l5.75-.596v16.8l-23.505 11.74c-12.928 6.457-23.66 11.74-23.847 11.74-.187 0-.635-5.47-.994-12.157zm-93.484-11.35c-9.95-4.836-17.062-8.857-16.7-9.442 1.383-2.24 17.507-14.047 25.03-18.33 7.473-4.254 20.166-9.497 20.853-8.613.168.217 2.158 4.658 4.422 9.87l4.117 9.476-2.638 3.524c-10.818 14.45-16.742 22.018-17.208 21.98-.3-.022-8.344-3.832-17.876-8.464zm177.33-7.55l-15-1.83-7.612-7.97c-9.192-9.624-21.05-29.418-17.94-29.944 5.66-.958 39.975 8.064 52.946 13.92l6.393 2.887-.673 8.076c-.942 11.295-1.782 16.937-2.5 16.804-.338-.062-7.364-.937-15.614-1.944zM570.623 27.95c-1.27-6.587-2.108-12.17-1.865-12.412.834-.822 15.534-3.547 25.444-4.716 10.988-1.296 32.767-.676 38.803 1.104 2.092.617 9.182 4.965 15.754 9.662 11.802 8.436 14.018 10.336 12.053 10.336-.553 0-19.73 1.8-42.613 4-22.884 2.2-42.432 4-43.44 4-1.543 0-2.19-1.875-4.137-11.975z" fill="#a5d170"/><path d="M600.856 357.902c-8.272-1.144-17.772-4.346-23.264-7.842-8.136-5.178-8.464-4.505 8.396-17.228l15.212-11.48 6.265 4.154c7.708 5.11 15.394 7.65 25.32 8.37l7.587.548-2.337 10.417c-1.285 5.73-2.483 10.565-2.662 10.744-1.918 1.918-25.807 3.522-34.517 2.318zM699.7 339.94c-8.138-5.17-12.75-8.738-13.218-10.228-.92-2.93-3.99-36.915-3.388-37.515.248-.25 4.99-1.777 10.538-3.397l10.087-2.945 25.016 20.177c28.685 23.135 27.32 20.41 14.29 28.534-7.955 4.957-26.304 13.372-29.08 13.334-.96-.012-7.37-3.595-14.246-7.96zm-157.5-7.103c-18.517-6.267-36.857-18.18-44.49-28.898l-1.997-2.807 46.57-30.727c25.615-16.9 46.917-30.334 47.34-29.855.42.48 1.518 15.035 2.437 32.343l1.67 31.47-11.265 11.395c-10.212 10.33-12.136 11.805-20.585 15.78-5.127 2.412-9.627 4.377-10 4.365-.374-.01-4.73-1.39-9.68-3.066zm77.165-12.663c-.652-1.08-5.663-17.6-5.392-17.777.125-.08 12.602.057 27.727.307l27.5.454-.277 6.633c-.153 3.65-.5 7.646-.77 8.884l-.49 2.25H643.74c-13.157 0-24.126-.338-24.375-.75zm134.807-9.618c-7.353-3.55-22.932-13.563-36.102-23.2-4.328-3.166-7.943-5.797-8.03-5.845-.215-.114 7.537-34.717 8.143-36.356.834-2.255 23.27 9.96 51.57 28.076 14.772 9.457 26.88 17.47 26.903 17.81.06.844-19.31 15.914-25.402 19.76-2.72 1.718-6.108 3.124-7.528 3.124s-5.72-1.516-9.554-3.368zM637.45 292.178l-24.75-3.532v-23.384l26.042-8.294c14.323-4.562 26.36-7.982 26.75-7.6 2.4 2.353 2.687 9.49 1.047 25.95-.94 9.408-1.736 17.893-1.773 18.856-.037.962-.63 1.702-1.317 1.643-.687-.06-12.387-1.696-26-3.64zm-164.61-17.004c-5.427-5.395-10.288-11.154-10.884-12.894l-1.078-3.144 10.66-5.51 10.662-5.513 12.458 8.947c6.852 4.92 12.61 9.1 12.796 9.284.515.515-22.608 18.58-23.782 18.58-.565 0-5.44-4.388-10.833-9.75zm210.025-15.5c-2.874-25.324-2.93-24.104 1.085-23.414 1.788.307 7.75 1.1 13.25 1.764 5.5.663 10.33 1.49 10.736 1.84.404.346-.83 8.94-2.746 19.095-1.915 10.155-3.484 18.8-3.486 19.214-.002.412-3.75.75-8.33.75h-8.324l-2.185-19.25zm84.082-3.644c-14.44-9.228-26.464-16.99-26.723-17.25-.258-.257 6.5-3.773 15.016-7.81l15.487-7.344 21.236 8.294c11.68 4.56 22.966 8.97 25.08 9.794l3.84 1.5-.684 4.566c-1.85 12.33-8.047 21.493-16.184 23.93-8.377 2.51-9.057 2.223-37.07-15.68zM611.7 251.126c0-3.737 3.086-39.603 3.44-39.967.14-.146 5.048.506 10.906 1.448l10.65 1.713 17.002-2.994 17.002-2.995v31.416l-26.802 6.52a13495 13495 0 0 0-29.5 7.197c-2.484.624-2.698.438-2.698-2.337zm-157.116-10.732c-4.112-9.296-7.32-34.382-6.706-52.454l.322-9.484 20.385-4.798c11.21-2.64 20.51-4.67 20.664-4.516.543.548 8.743 48.822 8.35 49.16-1.494 1.285-39.98 26.622-40.437 26.622-.317 0-1.477-2.04-2.58-4.53zm343.62-19.144c-15.95-4.668-29.048-8.564-29.108-8.657-.06-.093-3.757-5.645-8.217-12.337l-8.11-12.168 7.715-.728c10.37-.98 46.533.233 57.715 1.934 4.95.753 10.744 2.103 12.875 3l3.876 1.633-.505 8.248c-.456 7.417-4.795 25.224-6.557 26.906-.378.362-13.737-3.162-29.685-7.83zm-260.188-6.56c.297-1.247 1.973-9.804 3.723-19.016l3.18-16.75h53.78l-.072 2.75c-.04 1.512-1.052 9.95-2.25 18.75l-2.178 16-28.362.266-28.363.265.54-2.265zm-35.965-16.61l-2.96-17.843 17.412-1.716c9.577-.943 17.66-1.468 17.96-1.166.51.508-.184 7.54-2.94 29.82l-1.084 8.75H505.013l-2.962-17.844zm306.65-22.706c-7.975-.7-15.737-1.314-17.25-1.362l-2.75-.088V136.2l5.61-2.145c3.083-1.18 9.27-2.866 13.75-3.745 9.585-1.883 15.347-.885 19.26 3.336 4.37 4.718 8.38 22.344 8.38 36.85v6.428l-6.25-.138c-3.437-.076-12.775-.712-20.75-1.412zm-39.645-2.68l-8.145-.95 2.23-7.16c1.224-3.938 3.735-11.733 5.578-17.323l3.35-10.16 3.93-.376c2.177-.208 4.063.088 4.23.663.168.57.57 9.024.89 18.787l.588 17.75-2.253-.14c-1.24-.076-5.918-.567-10.398-1.09zm-43.064-3.086c.29-.753 2.242-8.866 4.34-18.027l3.81-16.656h15.78c8.68 0 15.767.112 15.75.25-.015.137-2.41 8.125-5.324 17.75l-5.296 17.5-14.792.277c-12.197.23-14.7.038-14.267-1.092zm-129.052-3.654c-8.944-.946-16.483-1.942-16.755-2.214-.403-.403 2.925-18.655 5.03-27.59.536-2.27.555-2.272 18.125-2l17.588.274 3.88 10c2.136 5.5 3.885 10.45 3.888 11 .008 1.48-12.637 12.52-14.174 12.375-.726-.07-8.638-.9-17.582-1.846zM631.7 154.03c0-9.37.342-13.034 1.25-13.412.688-.287 9.47-4.134 19.518-8.55l18.267-8.03 3.983 7.92c2.19 4.357 3.986 8.72 3.99 9.694.006.974-1.232 7.056-2.75 13.515L673.2 166.91l-20.75.007-20.75.007V154.03zm-122.45-7.356c.39-8.938.76-16.304.828-16.37.067-.064 4.51-.43 9.872-.81l9.75-.69v9.082c0 8.608.21 9.5 4.01 17.06l4.012 7.978H508.544l.706-16.25zm262.13-28.89c-5.36-11.655-7.058-15.845-6.564-16.206.21-.154 8.206-5.41 17.767-11.68l17.383-11.4 3.396 3.963c7.27 8.484 19.287 30.572 19.326 35.52.01 1.265-4.175 2.186-22.238 4.897-12.237 1.837-22.816 3.548-23.507 3.803-.796.293-2.837-2.973-5.562-8.896zm-74.473 4.392c-9.36-.22-13.404-.672-13.67-1.53-.21-.673-.592-6.06-.85-11.972l-.47-10.75H705.11l8.774-5.562c5.76-3.652 9.238-5.283 10.128-4.75 2.236 1.34 34.596 30.738 34.233 31.1-.425.425-45.698 4.255-47.045 3.98-.55-.113-6.982-.345-14.292-.516zM573.7 114.722c-14.575-1.635-26.623-3.094-26.774-3.243-.15-.15-1.082-6.624-2.068-14.387l-1.793-14.116 2.568.64c1.412.352 14.717 3.86 29.567 7.797l27 7.157.286 9.678c.22 7.412-.014 9.65-1 9.56-.707-.06-13.21-1.45-27.786-3.086zm-70.497-2.51c-18.698-1.347-34.187-2.64-34.42-2.872-.636-.636 5.697-16.94 9.677-24.916 4.118-8.25 10.706-18.424 15.5-23.93l3.42-3.93 16.08 9.9 16.08 9.898 4.174 15.968c4.748 18.17 5.62 22.65 4.367 22.462-.483-.072-16.18-1.233-34.877-2.58zm173.853-31.07c.334-3.695.903-10.656 1.263-15.468.4-5.36 1.086-8.752 1.768-8.755 2.338-.01 50.267 4.1 53.264 4.567l3.152.49-10.652 10.386c-15.885 15.486-12.994 14.164-32.528 14.88l-16.876.618.608-6.718zm-106.568-3.866c-5.108-4.206-9.682-7.998-10.164-8.426-.763-.678 9.147-20.978 11.368-23.285.78-.81 32.975 4.102 34.973 5.337.563.348.343 6.274-.56 15.048-2.194 21.354-.39 18.974-14.386 18.974h-11.944l-9.288-7.648zm48.866-6.51c-.36-6.686-.654-14.685-.654-17.776v-5.62l18.75-1.768c10.313-.972 21.338-2.036 24.5-2.363l5.75-.596v16.8l-23.505 11.74c-12.928 6.457-23.66 11.74-23.847 11.74-.187 0-.635-5.47-.994-12.157zm81.043-19.727l-12.804-1.616-7.272-8c-4.39-4.83-9.52-12.02-12.946-18.15-3.12-5.582-5.674-10.343-5.674-10.58 0-.96 14.3 1.585 26.56 4.728 11.66 2.988 30.74 9.645 32.67 11.398.4.364.212 5.937-.42 12.383l-1.148 11.72-3.08-.134c-1.695-.076-8.843-.863-15.885-1.75zM570.623 27.95c-1.27-6.587-2.108-12.17-1.865-12.412.834-.822 15.534-3.547 25.444-4.716 10.988-1.296 32.767-.676 38.803 1.104 2.092.617 9.182 4.965 15.754 9.662 11.802 8.436 14.018 10.336 12.053 10.336-.553 0-19.73 1.8-42.613 4-22.884 2.2-42.432 4-43.44 4-1.543 0-2.19-1.875-4.137-11.975z" fill="#e39462"/><path d="M595.18 356.454c-3.31-.72-7.804-2.057-9.987-2.97-4.82-2.013-13.493-7.485-13.493-8.513 0-1.036 28.067-22.382 29.41-22.367.6.007 3.268 1.492 5.93 3.3 7.13 4.837 17.432 8.12 25.742 8.197l6.963.065-.596 3.13c-.33 1.72-1.366 6.504-2.304 10.63l-1.705 7.5-6.47 1.14c-8.768 1.55-26.134 1.49-33.49-.11zm106.02-16.136c-6.6-4.17-12.55-8.104-13.22-8.744-.736-.7-1.933-8.74-3.01-20.21l-1.788-19.05 9.895-2.85c8.48-2.444 10.195-2.664 11.992-1.542 2.248 1.405 27.097 21.2 39.924 31.804 7.55 6.243 7.74 6.504 6.042 8.38-4.017 4.437-25.51 15.933-35.836 19.167-1.434.45-5.392-1.517-14-6.955zm-159-7.48c-18.517-6.268-36.857-18.18-44.49-28.9l-1.997-2.805 46.57-30.727c25.615-16.9 46.917-30.334 47.34-29.855.42.48 1.518 15.035 2.437 32.343l1.67 31.47-11.265 11.395c-10.212 10.33-12.136 11.805-20.585 15.78-5.127 2.412-9.627 4.377-10 4.365-.374-.01-4.73-1.39-9.68-3.066zm77.165-12.664c-.652-1.08-5.663-17.6-5.392-17.777.125-.08 12.602.057 27.727.307l27.5.454-.277 6.633c-.153 3.65-.5 7.646-.77 8.884l-.49 2.25H643.74c-13.157 0-24.126-.338-24.375-.75zm134.807-9.618c-7.353-3.55-22.932-13.563-36.102-23.2-4.328-3.166-7.943-5.797-8.03-5.845-.215-.114 7.537-34.717 8.143-36.356.834-2.255 23.27 9.96 51.57 28.076 14.772 9.457 26.88 17.47 26.903 17.81.06.844-19.31 15.914-25.402 19.76-2.72 1.718-6.108 3.124-7.528 3.124s-5.72-1.516-9.554-3.368zM637.45 292.178l-24.75-3.532v-23.384l26.042-8.294c14.323-4.562 26.36-7.982 26.75-7.6 2.4 2.353 2.687 9.49 1.047 25.95-.94 9.408-1.736 17.893-1.773 18.856-.037.962-.63 1.702-1.317 1.643-.687-.06-12.387-1.696-26-3.64zm-160.478-13.3c-6.777-5.593-15.272-15.897-15.272-18.524 0-1.703 19.707-11.72 21.263-10.807.68.4 6.343 4.357 12.585 8.797l11.347 8.072-3.48 3.004c-1.912 1.652-7.05 5.772-11.418 9.155l-7.94 6.15-7.085-5.847zm208.688-.162c-1.544-11.288-4.712-41.374-4.39-41.695.56-.558 25.53 2.67 26.256 3.396.288.29-1.045 8.96-2.963 19.266l-3.487 18.742-7.688.292c-4.228.16-7.706.16-7.728 0zm81.65-22.977l-26.89-17.15 15.082-7.232 15.082-7.232 24.223 9.442c13.322 5.192 24.54 9.637 24.925 9.876.387.24.274 2.807-.25 5.707-2.312 12.79-8.484 20.686-17.715 22.666-2.84.61-5.706 1.1-6.366 1.09-.66-.01-13.3-7.735-28.09-17.167zm-155.61-4.614c0-3.737 3.086-39.603 3.44-39.967.14-.146 5.048.506 10.906 1.448l10.65 1.713 17.002-2.994 17.002-2.995v31.416l-26.802 6.52a13495 13495 0 0 0-29.5 7.197c-2.484.624-2.698.438-2.698-2.337zm-156.587-10.37c-2.912-5.63-5.34-20.872-6.547-41.092-.65-10.868-.965-19.975-.7-20.238 1.2-1.2 40.07-9.66 40.793-8.878.445.482 2.458 10.55 4.47 22.376 2.015 11.825 3.874 22.215 4.133 23.09.343 1.16-4.875 5.143-19.32 14.75-10.886 7.238-20.107 13.16-20.492 13.16-.384 0-1.436-1.426-2.337-3.168zm343.09-19.506c-15.95-4.668-29.047-8.564-29.107-8.657-.06-.093-3.757-5.645-8.217-12.337l-8.11-12.168 7.715-.728c10.37-.98 46.533.233 57.715 1.934 4.95.753 10.744 2.103 12.875 3l3.876 1.633-.505 8.248c-.456 7.417-4.795 25.224-6.557 26.906-.378.362-13.737-3.162-29.685-7.83zM502.05 198.08l-2.96-17.843 17.412-1.716c9.577-.943 17.66-1.468 17.96-1.166.51.508-.184 7.54-2.94 29.82l-1.084 8.75H505.013l-2.962-17.844zm36.656 16.594c.003-.688 1.514-8.9 3.356-18.25l3.35-17 26.693-.267 26.692-.266-.546 3.267c-.3 1.797-1.226 8.667-2.06 15.267-.835 6.6-1.756 13.462-2.05 15.25l-.53 3.25h-27.455c-21.3 0-27.454-.28-27.45-1.25zm269.994-39.3c-7.975-.7-15.737-1.314-17.25-1.362l-2.75-.088V136.2l5.61-2.145c3.083-1.18 9.27-2.866 13.75-3.745 9.585-1.883 15.347-.885 19.26 3.336 4.37 4.718 8.38 22.344 8.38 36.85v6.428l-6.25-.138c-3.437-.076-12.775-.712-20.75-1.412zm-39.645-2.68l-8.145-.95 2.23-7.16c1.224-3.938 3.735-11.733 5.578-17.323l3.35-10.16 3.93-.376c2.177-.208 4.063.088 4.23.663.168.57.57 9.024.89 18.787l.588 17.75-2.253-.14c-1.24-.076-5.918-.567-10.398-1.09zm-43.064-3.086c.29-.753 2.242-8.866 4.34-18.027l3.81-16.656h15.78c8.68 0 15.767.112 15.75.25-.015.137-2.41 8.125-5.324 17.75l-5.296 17.5-14.792.277c-12.197.23-14.7.038-14.267-1.092zm-129.052-3.654c-8.944-.946-16.483-1.942-16.755-2.214-.403-.403 2.925-18.655 5.03-27.59.536-2.27.555-2.272 18.125-2l17.588.274 3.88 10c2.136 5.5 3.885 10.45 3.888 11 .008 1.48-12.637 12.52-14.174 12.375-.726-.07-8.638-.9-17.582-1.846zM631.7 154.03c0-9.37.342-13.034 1.25-13.412.688-.287 9.47-4.134 19.518-8.55l18.267-8.03 3.983 7.92c2.19 4.357 3.986 8.72 3.99 9.694.006.974-1.232 7.056-2.75 13.515L673.2 166.91l-20.75.007-20.75.007V154.03zm-122.45-7.356c.39-8.938.76-16.304.828-16.37.067-.064 4.51-.43 9.872-.81l9.75-.69v9.082c0 8.608.21 9.5 4.01 17.06l4.012 7.978H508.544l.706-16.25zm262.777-28.5c-1.957-4.263-4.37-9.617-5.364-11.9l-1.805-4.148 17.073-11.15c9.39-6.132 17.645-10.93 18.343-10.663 1.627.625 8.266 9.425 12.81 16.978 3.93 6.54 10.026 20.558 9.266 21.318-.475.474-42.815 7.276-45.457 7.303-.72.008-2.908-3.474-4.866-7.736zm-75.12 4.002c-9.36-.22-13.404-.672-13.67-1.53-.21-.673-.592-6.06-.85-11.972l-.47-10.75H705.11l8.774-5.562c5.76-3.652 9.238-5.283 10.128-4.75 2.236 1.34 34.596 30.738 34.233 31.1-.425.425-45.698 4.255-47.045 3.98-.55-.113-6.982-.345-14.292-.516zM573.7 114.722c-14.575-1.635-26.623-3.094-26.774-3.243-.15-.15-1.082-6.624-2.068-14.387l-1.793-14.116 2.568.64c1.412.352 14.717 3.86 29.567 7.797l27 7.157.286 9.678c.22 7.412-.014 9.65-1 9.56-.707-.06-13.21-1.45-27.786-3.086zm-74-3.347c-16.775-1.252-30.606-2.316-30.736-2.364-.673-.247 4.635-13.024 9.8-23.586 5.516-11.284 14.51-24.68 17.995-26.8 1.176-.716 5.326 1.377 16.948 8.546l15.39 9.495 4.142 15.88c2.277 8.733 4.446 17.116 4.82 18.63.827 3.353 3.65 3.338-38.36.2zm178.644-39.052c.687-8.195 1.272-14.922 1.302-14.95.12-.113 52.282 4.445 54.216 4.737 1.67.252-.39 2.63-10.494 12.107l-12.57 11.794-16.85.606-16.85.606 1.246-14.9zM570.7 76.848c-5.225-4.392-9.648-8.416-9.83-8.943-.18-.527 2.27-5.9 5.443-11.94 4.89-9.305 6.087-10.914 7.83-10.533 2.734.597 31.474 5.492 32.244 5.492.628 0 .138 6.433-1.81 23.75l-1.15 10.25-11.614-.045-11.613-.046-9.5-7.986zm48.654-6.08c-.36-6.688-.654-14.687-.654-17.778v-5.62l18.75-1.768c10.313-.972 21.338-2.036 24.5-2.363l5.75-.596v16.8l-23.505 11.74c-12.928 6.457-23.66 11.74-23.847 11.74-.187 0-.635-5.47-.994-12.157zm81.043-19.73l-12.804-1.614-7.272-8c-4.39-4.83-9.52-12.02-12.946-18.15-3.12-5.582-5.674-10.343-5.674-10.58 0-.96 14.3 1.585 26.56 4.728 11.66 2.988 30.74 9.645 32.67 11.398.4.364.212 5.937-.42 12.383l-1.148 11.72-3.08-.134c-1.695-.076-8.843-.863-15.885-1.75zm-127.14-12.285c-.244-.73-1.373-6.025-2.51-11.764-1.584-8.005-1.784-10.61-.856-11.184 4.264-2.635 36.775-6.31 47.81-5.405 15.39 1.263 17.453 2.04 30.86 11.625 7.004 5.008 11.797 9.053 11.018 9.3-.758.24-19.153 2.07-40.878 4.07-21.725 1.997-40.738 3.87-42.25 4.16-1.786.343-2.907.06-3.194-.802z" fill="#d96f2c"/><path d="M542.2 332.837c-18.517-6.267-36.857-18.18-44.49-28.898l-1.997-2.807 46.57-30.727c25.615-16.9 46.917-30.334 47.34-29.855.42.48 1.518 15.035 2.437 32.343l1.67 31.47-11.265 11.395c-10.212 10.33-12.136 11.805-20.585 15.78-5.127 2.412-9.627 4.377-10 4.365-.374-.01-4.73-1.39-9.68-3.066zm77.165-12.663c-.652-1.08-5.663-17.6-5.392-17.777.125-.08 12.602.057 27.727.307l27.5.454-.277 6.633c-.153 3.65-.5 7.646-.77 8.884l-.49 2.25H643.74c-13.157 0-24.126-.338-24.375-.75zm134.807-9.618c-7.353-3.55-22.932-13.563-36.102-23.2-4.328-3.166-7.943-5.797-8.03-5.845-.215-.114 7.537-34.717 8.143-36.356.834-2.255 23.27 9.96 51.57 28.076 14.772 9.457 26.88 17.47 26.903 17.81.06.844-19.31 15.914-25.402 19.76-2.72 1.718-6.108 3.124-7.528 3.124s-5.72-1.516-9.554-3.368zM637.45 292.178l-24.75-3.532v-23.384l26.042-8.294c14.323-4.562 26.36-7.982 26.75-7.6 2.4 2.353 2.687 9.49 1.047 25.95-.94 9.408-1.736 17.893-1.773 18.856-.037.962-.63 1.702-1.317 1.643-.687-.06-12.387-1.696-26-3.64zm-25.75-41.052c0-3.737 3.086-39.603 3.44-39.967.14-.146 5.048.506 10.906 1.448l10.65 1.713 17.002-2.994 17.002-2.995v31.416l-26.802 6.52a13495 13495 0 0 0-29.5 7.197c-2.484.624-2.698.438-2.698-2.337zm186.503-29.876c-15.95-4.668-29.047-8.564-29.107-8.657-.06-.093-3.757-5.645-8.217-12.337l-8.11-12.168 7.715-.728c10.37-.98 46.533.233 57.715 1.934 4.95.753 10.744 2.103 12.875 3l3.876 1.633-.505 8.248c-.456 7.417-4.795 25.224-6.557 26.906-.378.362-13.737-3.162-29.685-7.83zM502.05 198.08l-2.96-17.843 17.412-1.716c9.577-.943 17.66-1.468 17.96-1.166.51.508-.184 7.54-2.94 29.82l-1.084 8.75H505.013l-2.962-17.844zm306.65-22.706c-7.975-.7-15.737-1.314-17.25-1.362l-2.75-.088V136.2l5.61-2.145c3.083-1.18 9.27-2.866 13.75-3.745 9.585-1.883 15.347-.885 19.26 3.336 4.37 4.718 8.38 22.344 8.38 36.85v6.428l-6.25-.138c-3.437-.076-12.775-.712-20.75-1.412zm-39.645-2.68l-8.145-.95 2.23-7.16c1.224-3.938 3.735-11.733 5.578-17.323l3.35-10.16 3.93-.376c2.177-.208 4.063.088 4.23.663.168.57.57 9.024.89 18.787l.588 17.75-2.253-.14c-1.24-.076-5.918-.567-10.398-1.09zm-43.064-3.086c.29-.753 2.242-8.866 4.34-18.027l3.81-16.656h15.78c8.68 0 15.767.112 15.75.25-.015.137-2.41 8.125-5.324 17.75l-5.296 17.5-14.792.277c-12.197.23-14.7.038-14.267-1.092zm-129.052-3.654c-8.944-.946-16.483-1.942-16.755-2.214-.403-.403 2.925-18.655 5.03-27.59.536-2.27.555-2.272 18.125-2l17.588.274 3.88 10c2.136 5.5 3.885 10.45 3.888 11 .008 1.48-12.637 12.52-14.174 12.375-.726-.07-8.638-.9-17.582-1.846zM631.7 154.03c0-9.37.342-13.034 1.25-13.412.688-.287 9.47-4.134 19.518-8.55l18.267-8.03 3.983 7.92c2.19 4.357 3.986 8.72 3.99 9.694.006.974-1.232 7.056-2.75 13.515L673.2 166.91l-20.75.007-20.75.007V154.03zm-122.45-7.356c.39-8.938.76-16.304.828-16.37.067-.064 4.51-.43 9.872-.81l9.75-.69v9.082c0 8.608.21 9.5 4.01 17.06l4.012 7.978H508.544l.706-16.25zm187.657-24.498c-9.36-.22-13.404-.672-13.67-1.53-.21-.673-.592-6.06-.85-11.972l-.47-10.75H705.11l8.774-5.562c5.76-3.652 9.238-5.283 10.128-4.75 2.236 1.34 34.596 30.738 34.233 31.1-.425.425-45.698 4.255-47.045 3.98-.55-.113-6.982-.345-14.293-.516zM573.7 114.722c-14.575-1.635-26.623-3.094-26.774-3.243-.15-.15-1.082-6.624-2.068-14.387l-1.793-14.116 2.568.64c1.412.352 14.717 3.86 29.567 7.797l27 7.157.286 9.678c.22 7.412-.014 9.65-1 9.56-.707-.06-13.21-1.45-27.786-3.086zm45.654-43.955c-.36-6.687-.654-14.686-.654-17.777v-5.62l18.75-1.768c10.313-.972 21.338-2.036 24.5-2.363l5.75-.596v16.8l-23.505 11.74c-12.928 6.457-23.66 11.74-23.847 11.74-.187 0-.635-5.47-.994-12.157zm81.043-19.728l-12.804-1.616-7.272-8c-4.39-4.83-9.52-12.02-12.946-18.15-3.12-5.582-5.674-10.343-5.674-10.58 0-.96 14.3 1.585 26.56 4.728 11.66 2.988 30.74 9.645 32.67 11.398.4.364.212 5.937-.42 12.383l-1.148 11.72-3.08-.134c-1.695-.076-8.843-.863-15.885-1.75z" fill="#279ba7"/><path d="M542.2 332.837c-18.517-6.267-36.857-18.18-44.49-28.898l-1.997-2.807 46.57-30.727c25.615-16.9 46.917-30.334 47.34-29.855.42.48 1.518 15.035 2.437 32.343l1.67 31.47-11.265 11.395c-10.212 10.33-12.136 11.805-20.585 15.78-5.127 2.412-9.627 4.377-10 4.365-.374-.01-4.73-1.39-9.68-3.066zm211.972-22.28c-7.353-3.552-22.932-13.564-36.102-23.2-4.328-3.167-7.943-5.798-8.03-5.846-.215-.114 7.537-34.717 8.143-36.356.834-2.255 23.27 9.96 51.57 28.076 14.772 9.457 26.88 17.47 26.903 17.81.06.844-19.31 15.914-25.402 19.76-2.72 1.718-6.108 3.124-7.528 3.124s-5.72-1.516-9.554-3.368zM637.95 292.08l-25.25-3.58V265.38l26.15-8.296c20.513-6.507 26.327-8.01 26.97-6.98 1.86 2.984 2 10.566.484 26.017-.882 8.98-1.604 17.11-1.604 18.065 0 .955-.337 1.677-.75 1.606-.412-.072-12.112-1.743-26-3.713zm160.253-70.83c-15.95-4.668-29.047-8.564-29.107-8.657-.06-.093-3.757-5.645-8.217-12.337l-8.11-12.168 7.715-.728c10.37-.98 46.533.233 57.715 1.934 4.95.753 10.744 2.103 12.875 3l3.876 1.633-.505 8.248c-.456 7.417-4.795 25.224-6.557 26.906-.378.362-13.737-3.162-29.685-7.83zM502.05 198.08l-2.96-17.843 17.412-1.716c9.577-.943 17.66-1.468 17.96-1.166.51.508-.184 7.54-2.94 29.82l-1.084 8.75H505.013l-2.962-17.844zm306.65-22.706c-7.975-.7-15.737-1.314-17.25-1.362l-2.75-.088V136.2l5.61-2.145c3.083-1.18 9.27-2.866 13.75-3.745 9.585-1.883 15.347-.885 19.26 3.336 4.37 4.718 8.38 22.344 8.38 36.85v6.428l-6.25-.138c-3.437-.076-12.775-.712-20.75-1.412zm-38.25-2.717c-4.812-.536-8.75-1.415-8.75-1.954 0-.538 2.265-8.09 5.032-16.784 3.124-9.81 5.62-16.033 6.582-16.402 2.647-1.015 6.43-.654 6.858.656.982 3 1.03 35.743.053 35.604-.564-.08-4.962-.585-9.775-1.12zm-138.75-18.53v-12.84l18.75-8.19c10.313-4.506 19.223-8.188 19.8-8.182.577.005 2.796 3.59 4.93 7.967l3.88 7.96-2.984 12.79-2.984 12.792-20.696.27-20.696.27v-12.838zm-122.273-7.453c.297-8.938.592-16.31.656-16.383.065-.072 4.28-.323 9.367-.557l9.25-.425v7.828c0 7.286.312 8.45 4.51 16.808l4.51 8.98h-28.832l.54-16.25zm187.48-24.498c-9.36-.22-13.404-.672-13.67-1.53-.21-.673-.592-6.06-.85-11.972l-.47-10.75H705.11l8.774-5.562c5.76-3.652 9.238-5.283 10.128-4.75 2.236 1.34 34.596 30.738 34.233 31.1-.425.425-45.698 4.255-47.045 3.98-.55-.113-6.982-.345-14.293-.516zM573.7 114.722c-14.575-1.635-26.623-3.094-26.774-3.243-.15-.15-1.082-6.624-2.068-14.387l-1.793-14.116 2.568.64c1.412.352 14.717 3.86 29.567 7.797l27 7.157.286 9.678c.22 7.412-.014 9.65-1 9.56-.707-.06-13.21-1.45-27.786-3.086zM700.397 51.04l-12.804-1.616-7.272-8c-4.39-4.83-9.52-12.02-12.946-18.15-3.12-5.582-5.674-10.343-5.674-10.58 0-.96 14.3 1.585 26.56 4.728 11.66 2.988 30.74 9.645 32.67 11.398.4.364.212 5.937-.42 12.383l-1.148 11.72-3.08-.134c-1.695-.076-8.843-.863-15.885-1.75z" fill="#73a340"/><path d="M637.95 292.08l-25.25-3.58V265.38l26.15-8.296c20.513-6.507 26.327-8.01 26.97-6.98 1.86 2.984 2 10.566.484 26.017-.882 8.98-1.604 17.11-1.604 18.065 0 .955-.337 1.677-.75 1.606-.412-.072-12.112-1.743-26-3.713zm132.5-119.423c-4.812-.536-8.75-1.415-8.75-1.954 0-.538 2.265-8.09 5.032-16.784 3.124-9.81 5.62-16.033 6.582-16.402 2.647-1.015 6.43-.654 6.858.656.982 3 1.03 35.743.053 35.604-.564-.08-4.962-.585-9.775-1.12zm-138.75-18.53v-12.84l18.75-8.19c10.313-4.506 19.223-8.188 19.8-8.182.577.005 2.796 3.59 4.93 7.967l3.88 7.96-2.984 12.79-2.984 12.792-20.696.27-20.696.27v-12.838zm-122.273-7.453c.297-8.938.592-16.31.656-16.383.065-.072 4.28-.323 9.367-.557l9.25-.425v7.828c0 7.286.312 8.45 4.51 16.808l4.51 8.98h-28.832l.54-16.25z" fill="#0e6e71"/></a></svg>